<svg width="900" height="200" viewBox="0 0 900 200" xmlns="http://www.w3.org/2000/svg">
  <rect width="900" height="200" rx="16" fill="#1a0a2e"/>
  <rect width="900" height="200" rx="16" fill="#2d1060" opacity="0.5"/>

  <g transform="translate(80,90)">
    <ellipse cx="0" cy="-28" rx="11" ry="22" fill="#7c3fa0" opacity="0.85" transform="rotate(0)"/>
    <ellipse cx="0" cy="-28" rx="11" ry="22" fill="#9b55c4" opacity="0.75" transform="rotate(45)"/>
    <ellipse cx="0" cy="-28" rx="11" ry="22" fill="#7c3fa0" opacity="0.85" transform="rotate(90)"/>
    <ellipse cx="0" cy="-28" rx="11" ry="22" fill="#9b55c4" opacity="0.75" transform="rotate(135)"/>
    <ellipse cx="0" cy="-28" rx="11" ry="22" fill="#7c3fa0" opacity="0.85" transform="rotate(180)"/>
    <ellipse cx="0" cy="-28" rx="11" ry="22" fill="#9b55c4" opacity="0.75" transform="rotate(225)"/>
    <ellipse cx="0" cy="-28" rx="11" ry="22" fill="#7c3fa0" opacity="0.85" transform="rotate(270)"/>
    <ellipse cx="0" cy="-28" rx="11" ry="22" fill="#9b55c4" opacity="0.75" transform="rotate(315)"/>
    <circle cx="0" cy="0" r="11" fill="#e8b4f0"/>
    <circle cx="0" cy="0" r="6" fill="#f5d6fa"/>
  </g>

  <g transform="translate(820,90)">
    <ellipse cx="0" cy="-26" rx="10" ry="20" fill="#b86fd6" opacity="0.85" transform="rotate(0)"/>
    <ellipse cx="0" cy="-26" rx="10" ry="20" fill="#c885e8" opacity="0.75" transform="rotate(45)"/>
    <ellipse cx="0" cy="-26" rx="10" ry="20" fill="#b86fd6" opacity="0.85" transform="rotate(90)"/>
    <ellipse cx="0" cy="-26" rx="10" ry="20" fill="#c885e8" opacity="0.75" transform="rotate(135)"/>
    <ellipse cx="0" cy="-26" rx="10" ry="20" fill="#b86fd6" opacity="0.85" transform="rotate(180)"/>
    <ellipse cx="0" cy="-26" rx="10" ry="20" fill="#c885e8" opacity="0.75" transform="rotate(225)"/>
    <ellipse cx="0" cy="-26" rx="10" ry="20" fill="#b86fd6" opacity="0.85" transform="rotate(270)"/>
    <ellipse cx="0" cy="-26" rx="10" ry="20" fill="#c885e8" opacity="0.75" transform="rotate(315)"/>
    <circle cx="0" cy="0" r="10" fill="#f0c6fa"/>
    <circle cx="0" cy="0" r="5" fill="#fff"/>
  </g>

  <g transform="translate(170,50)">
    <ellipse cx="0" cy="-14" rx="5" ry="12" fill="#9b3dcc" opacity="0.7" transform="rotate(0)"/>
    <ellipse cx="0" cy="-14" rx="5" ry="12" fill="#a855c8" opacity="0.7" transform="rotate(60)"/>
    <ellipse cx="0" cy="-14" rx="5" ry="12" fill="#9b3dcc" opacity="0.7" transform="rotate(120)"/>
    <ellipse cx="0" cy="-14" rx="5" ry="12" fill="#a855c8" opacity="0.7" transform="rotate(180)"/>
    <ellipse cx="0" cy="-14" rx="5" ry="12" fill="#9b3dcc" opacity="0.7" transform="rotate(240)"/>
    <ellipse cx="0" cy="-14" rx="5" ry="12" fill="#a855c8" opacity="0.7" transform="rotate(300)"/>
    <circle cx="0" cy="0" r="6" fill="#f5d0ff"/>
  </g>

  <g transform="translate(730,150)">
    <ellipse cx="0" cy="-14" rx="5" ry="12" fill="#7b2fa8" opacity="0.7" transform="rotate(0)"/>
    <ellipse cx="0" cy="-14" rx="5" ry="12" fill="#9040c0" opacity="0.7" transform="rotate(60)"/>
    <ellipse cx="0" cy="-14" rx="5" ry="12" fill="#7b2fa8" opacity="0.7" transform="rotate(120)"/>
    <ellipse cx="0" cy="-14" rx="5" ry="12" fill="#9040c0" opacity="0.7" transform="rotate(180)"/>
    <ellipse cx="0" cy="-14" rx="5" ry="12" fill="#7b2fa8" opacity="0.7" transform="rotate(240)"/>
    <ellipse cx="0" cy="-14" rx="5" ry="12" fill="#9040c0" opacity="0.7" transform="rotate(300)"/>
    <circle cx="0" cy="0" r="6" fill="#e8c0ff"/>
  </g>

  <g transform="translate(300,35)">
    <ellipse cx="0" cy="-10" rx="4" ry="9" fill="#c070e8" opacity="0.6" transform="rotate(0)"/>
    <ellipse cx="0" cy="-10" rx="4" ry="9" fill="#c070e8" opacity="0.6" transform="rotate(72)"/>
    <ellipse cx="0" cy="-10" rx="4" ry="9" fill="#c070e8" opacity="0.6" transform="rotate(144)"/>
    <ellipse cx="0" cy="-10" rx="4" ry="9" fill="#c070e8" opacity="0.6" transform="rotate(216)"/>
    <ellipse cx="0" cy="-10" rx="4" ry="9" fill="#c070e8" opacity="0.6" transform="rotate(288)"/>
    <circle cx="0" cy="0" r="5" fill="#f0d8ff"/>
  </g>

  <g transform="translate(600,165)">
    <ellipse cx="0" cy="-10" rx="4" ry="9" fill="#a848d8" opacity="0.6" transform="rotate(0)"/>
    <ellipse cx="0" cy="-10" rx="4" ry="9" fill="#a848d8" opacity="0.6" transform="rotate(72)"/>
    <ellipse cx="0" cy="-10" rx="4" ry="9" fill="#a848d8" opacity="0.6" transform="rotate(144)"/>
    <ellipse cx="0" cy="-10" rx="4" ry="9" fill="#a848d8" opacity="0.6" transform="rotate(216)"/>
    <ellipse cx="0" cy="-10" rx="4" ry="9" fill="#a848d8" opacity="0.6" transform="rotate(288)"/>
    <circle cx="0" cy="0" r="5" fill="#eecaff"/>
  </g>

  <circle cx="220" cy="160" r="2.5" fill="#d8a0f0" opacity="0.5"/>
  <circle cx="450" cy="25" r="2" fill="#c888e8" opacity="0.4"/>
  <circle cx="680" cy="40" r="2.5" fill="#e0b8f8" opacity="0.5"/>
  <circle cx="140" cy="170" r="2" fill="#c070e0" opacity="0.4"/>
  <circle cx="870" cy="160" r="2" fill="#b858d8" opacity="0.4"/>

  <text x="450" y="84" text-anchor="middle" font-family="monospace" font-size="32" font-weight="700" fill="#f0d0ff">Hi 👋 I'm Subhra Nandi</text>
  <text x="450" y="120" text-anchor="middle" font-family="monospace" font-size="15" fill="#c898e8">Backend &amp; AI/ML Engineer  |  AI &amp; Robotics @ UEM Kolkata</text>
  <text x="450" y="152" text-anchor="middle" font-family="monospace" font-size="12" fill="#9860c0">⚡ Building LLM Pipelines · Agentic AI · Scalable APIs ⚡</text>
</svg>
